PathFileType	4	(X/Y/Z)	Patient4_TMGait_0pt2_03_left_16.trc.trc
DataRate	CameraRate	NumFrames	NumMarkers	Units	OrigDataRate	OrigDataStartFrame	OrigNumFrames
48.109965635739	48.109965635739	4	33	mm	48.109965635739	36	       141
Frame#	Time	Sacral			L.Shoulder			Chest			R.Shoulder			Neck			R.ASIS			L.ASIS			R.Thigh.Superior			R.Thigh.Lateral			R.Thigh.Inferior			R.Patella			L.Thigh.Superior			L.Thigh.Lateral			L.Thigh.Inferior			L.Patella			L.Shank.Superior			L.Shank.Lateral			L.Shank.Inferior			R.Shank.Superior			R.Shank.Lateral			R.Shank.Inferior			R.Heel			R.Midfoot.Superior			R.Midfoot.Lateral			R.Toe			L.Heel			L.Midfoot.Lateral			L.Midfoot.Superior			L.Toe			L.Elbow			L.Wrist			R.Elbow			R.Wrist			
		X1	Y1	Z1	X2	Y2	Z2	X3	Y3	Z3	X4	Y4	Z4	X5	Y5	Z5	X6	Y6	Z6	X7	Y7	Z7	X8	Y8	Z8	X9	Y9	Z9	X10	Y10	Z10	X11	Y11	Z11	X12	Y12	Z12	X13	Y13	Z13	X14	Y14	Z14	X15	Y15	Z15	X16	Y16	Z16	X17	Y17	Z17	X18	Y18	Z18	X19	Y19	Z19	X20	Y20	Z20	X21	Y21	Z21	X22	Y22	Z22	X23	Y23	Z23	X24	Y24	Z24	X25	Y25	Z25	X26	Y26	Z26	X27	Y27	Z27	X28	Y28	Z28	X29	Y29	Z29	X30	Y30	Z30	X31	Y31	Z31	X32	Y32	Z32	X33	Y33	Z33	

36	34.077500000000	852.981220579428	1009.841812240340	537.941773436863	1001.670774490735	1429.853255213487	330.871773848839	1127.503189331899	1363.996374645512	475.529213976999	1073.100456670723	1442.586439812199	657.301233243952	1000.917885414183	1494.712136591311	488.134153452280	1090.181985481257	937.265527292120	629.627932994623	1048.960723180863	962.450097702053	358.859185462673	1084.246893219166	723.797387063047	607.184126387282	986.880079666472	630.264880118741	679.664020014345	1043.949506177013	561.852202223931	599.363262877142	1023.918666467645	471.109806017161	611.327474957558	1113.434116993387	762.839810493452	385.343245955063	1033.314697560788	627.683623921106	317.493260598075	1137.342626550204	570.144344917357	376.298665585793	1146.446863844514	499.564103418858	379.154987539731	1123.696596228981	427.407346941613	367.813479685339	1041.012875003589	310.485858954490	312.242159340287	1101.344473673373	197.949616128889	372.964573293380	968.335921933972	393.284467557046	623.389220058589	873.389707304989	318.928240929337	696.633464327432	878.219838140381	213.563782435969	636.754781922807	698.606462877405	83.244859597216	625.779075468708	878.264824155804	103.033416306057	649.707467929247	783.951582554426	57.489952849400	693.217554360369	986.756587713149	36.974062106484	668.615960871220	981.145933087097	39.181575681640	405.681813783211	1055.625842624124	37.108734850809	325.840403214969	1139.058210568784	97.765872273773	353.253556623113	1266.984062602478	45.383455868332	324.410968181089	890.891775613271	1093.042711552856	233.888506051321	891.305679246636	830.874136553693	255.636622474289	1239.910117382281	1143.676270516956	769.458796650478	1487.455914135117	1163.286234326264	702.345996991185	
37	34.098285714286	853.789422798591	1010.773440468898	530.595386909221	1005.048474819292	1430.477042913105	324.827683092133	1129.335337136351	1364.672280738110	470.800388007595	1073.149765312372	1443.417532587995	652.034116421342	1002.557417952393	1495.526775178076	482.074612477051	1090.091546797617	938.147631795027	624.409828413382	1051.294050386266	962.857367945039	353.347610725495	1083.597124187997	724.542939849223	603.491765682821	985.305109843876	632.046880954775	676.153783107510	1042.726256378769	562.660510663673	596.892270016347	1022.280583183362	472.035658570476	609.429642792324	1114.552954425441	762.664428201750	380.757884186541	1033.985215157008	627.407082039419	313.501358707438	1137.534182398633	569.689295071663	372.892632721480	1146.243156060588	498.889230801152	376.288856844495	1122.897289871958	426.713610867042	365.473723530399	1039.426759070358	310.103384685779	310.543305280359	1098.520478990092	197.577285259471	372.264808548265	966.340112995857	394.599446553414	621.867328950936	870.718819487528	321.181263382838	695.135927302903	875.702962639697	215.126269932993	636.288907152008	695.460138780564	85.946697896796	625.645622877483	875.432393371489	103.510284926594	649.798976686913	780.444011650367	59.019185316431	693.108518138556	982.739337636605	36.958858747764	668.521199253304	977.104158637241	39.216657917599	405.696962872220	1051.573984620150	37.122998082241	325.849063611070	1135.064211869672	97.692447678964	353.266648988808	1262.990550807688	45.068741104143	324.388696587455	902.997801751694	1091.111652625402	224.540533027266	910.330818997277	828.780884280782	242.806959190483	1230.896751627307	1138.396306948279	765.584535840833	1480.497393292461	1143.527485100384	702.641361016796	
38	34.119071428571	854.533112546190	1011.596301547331	523.300248173143	1008.384347222542	1431.078812417023	318.844004880036	1131.094907654035	1365.252293245398	466.086869248502	1073.157476012442	1444.049225859472	646.821581131696	1004.160035470779	1496.247963244784	476.072990985132	1089.941713093967	938.973234470249	619.091525983267	1053.479710649901	963.148963085144	347.777359135762	1083.007194119994	725.224215056026	599.714755075544	983.865502101186	633.716997588900	672.589459366213	1041.670710663975	563.382537715688	594.349995420931	1020.865630218318	472.783905533449	607.515821325028	1115.622886776695	762.434394438114	376.144414972202	1034.665137470853	627.012722873402	309.527703881637	1137.795760263372	569.172903164963	369.438039422437	1146.123076201054	498.152187861215	373.373445747934	1122.145956681737	425.938336465286	363.103824495731	1037.838993886802	309.667129522579	308.809228336781	1095.713960733507	197.162604028739	371.522510390440	964.508928118358	395.804760864584	620.327964778011	868.170595945417	323.383047858218	693.622864965691	873.283856400701	216.625564992938	635.821462319437	692.341845191520	88.586951781890	625.536729898624	872.641977113262	103.920512530621	649.899054217784	776.956621692025	60.495203575420	693.014581850600	978.742280970385	36.962247461406	668.418855169440	973.031136544693	39.243101096012	405.710030079591	1047.486301996142	37.118391200997	325.845800135897	1131.047319855302	97.592955184373	353.261253429951	1258.964455156523	44.716479600373	324.358966119050	916.270698492512	1089.101760413475	215.228188394538	930.997888559541	826.934751886100	230.719023125822	1220.769266596278	1132.787936497879	761.814557043832	1471.357970322251	1122.085249696637	703.274096312094	
39	34.139857142857	855.186733775385	1012.305315973448	516.057186064679	1011.698237321906	1431.646652784322	312.927593454683	1132.780230573156	1365.715539628991	461.406353782191	1073.104322701406	1444.462062281087	641.671582353856	1005.726511455132	1496.852040548544	470.150711963677	1089.708997013745	939.732882668947	613.701574856477	1055.519093377585	963.313275178384	342.170115300071	1082.538528484199	725.824423705087	595.868265865100	982.669377434807	635.210793729475	668.982242619331	1040.926312767904	563.980591671253	591.735020291646	1019.857918724405	473.282422988313	605.613933949300	1116.653577807074	762.150482146789	371.553022321600	1035.408900320204	626.515379015146	305.575823523401	1138.170810693986	568.608815608659	365.972327854982	1146.138044822263	497.355348042900	370.430383906326	1121.485865460593	425.079236014404	360.716861202650	1036.287041466441	309.186724129985	307.033805423864	1092.931233062634	196.705611009272	370.745668913344	962.985019160287	396.849035047823	618.778277688309	865.854875787254	325.533133737199	692.101074366692	871.029307030084	218.064570450852	635.360808493729	689.274941772920	91.240652650164	625.458129789454	869.911556654301	104.273718425612	650.005782003917	773.501333236563	61.966799044497	692.941516017347	974.765106148811	36.971470234681	668.316830038931	968.925404267131	39.261983485070	405.712969045857	1043.363952621476	37.096298906518	325.824795582213	1127.003324018971	97.477067747738	353.233239582832	1254.907394043558	44.345857821494	324.325707578947	930.594117767359	1087.135750693110	206.007534493212	953.278869024375	825.486485341995	219.439629549777	1209.555796536645	1126.975219301244	758.124350156157	1459.801680403436	1099.034213542170	704.229155687444	
